<svg height="512" viewBox="0 0 512 512" width="512" xmlns="http://www.w3.org/2000/svg"><path d="m152 328h208v32h-208z" fill="#57a4ff"/><path d="m152 328h208v32h-208z" fill="#57a4ff"/><path d="m496 232h-160c0 26.51-35.82 48-80 48s-80-21.49-80-48h-160l96-144h288z" fill="#57a4ff"/><g fill="#004fac"><path d="m502.656 227.563-.011-.017-.021-.031-95.968-143.953a8 8 0 0 0 -6.656-3.562h-288a8 8 0 0 0 -6.656 3.562l-95.968 143.952-.021.031-.011.017a7.962 7.962 0 0 0 -1.344 4.438v192a8 8 0 0 0 8 8h480a8 8 0 0 0 8-8v-192a7.962 7.962 0 0 0 -1.344-4.437zm-386.375-131.563h279.438l85.333 128h-145.052a8 8 0 0 0 -8 8c0 21.682-32.972 40-72 40s-72-18.318-72-40a8 8 0 0 0 -8-8h-145.052zm371.719 320h-464v-176h144.853c5.927 27.481 42.078 48 87.147 48s81.22-20.519 87.147-48h144.853z"/><path d="m144 328v32a8 8 0 0 0 8 8h208a8 8 0 0 0 8-8v-32a8 8 0 0 0 -8-8h-208a8 8 0 0 0 -8 8zm16 8h192v16h-192z"/><path d="m360 400a8 8 0 0 0 8 8h72a8 8 0 0 0 0-16h-72a8 8 0 0 0 -8 8z"/><path d="m464 408h8a8 8 0 0 0 0-16h-8a8 8 0 0 0 0 16z"/></g></svg>